<?xml version="1.0" encoding="UTF-8"?>
<!DOCTYPE svg PUBLIC "-//W3C//DTD SVG 1.1//EN" "http://www.w3.org/Graphics/SVG/1.1/DTD/svg11.dtd">
<svg xmlns="http://www.w3.org/2000/svg" version="1.1" width="188px" height="188px" style="shape-rendering:geometricPrecision; text-rendering:geometricPrecision; image-rendering:optimizeQuality; fill-rule:evenodd; clip-rule:evenodd" xmlns:xlink="http://www.w3.org/1999/xlink">
<g><path style="opacity:0.004" fill="#fefffe" d="M 55.5,0.5 C 56.8333,1.16667 56.8333,1.16667 55.5,0.5 Z"/></g>
<g><path style="opacity:0.004" fill="#fefffe" d="M 6.5,1.5 C 7.83333,2.16667 7.83333,2.16667 6.5,1.5 Z"/></g>
<g><path style="opacity:0.004" fill="#fefffe" d="M 86.5,1.5 C 87.8333,2.16667 87.8333,2.16667 86.5,1.5 Z"/></g>
<g><path style="opacity:0.004" fill="#fefffe" d="M 0.5,3.5 C 1.83333,4.16667 1.83333,4.16667 0.5,3.5 Z"/></g>
<g><path style="opacity:0.004" fill="#fefffe" d="M 41.5,4.5 C 42.8333,5.16667 42.8333,5.16667 41.5,4.5 Z"/></g>
<g><path style="opacity:0.004" fill="#fefffe" d="M 63.5,5.5 C 64.8333,6.16667 64.8333,6.16667 63.5,5.5 Z"/></g>
<g><path style="opacity:0.004" fill="#fefffe" d="M 185.5,6.5 C 186.833,7.16667 186.833,7.16667 185.5,6.5 Z"/></g>
<g><path style="opacity:0.004" fill="#fefffe" d="M 65.5,8.5 C 66.8333,9.16667 66.8333,9.16667 65.5,8.5 Z"/></g>
<g><path style="opacity:1" fill="#f8f8fb" d="M 91.5,5.5 C 95.7675,5.20299 99.9341,5.53632 104,6.5C 105.825,13.3319 108.325,19.8319 111.5,26C 112.833,26.6667 114.167,26.6667 115.5,26C 120.592,21.3775 125.758,16.8775 131,12.5C 138.899,16.8667 146.732,21.3667 154.5,26C 156.037,27.1096 156.703,28.6096 156.5,30.5C 164.609,29.8864 172.442,30.5531 180,32.5C 180.828,81.8744 180.662,131.208 179.5,180.5C 138.504,181.667 97.5041,181.833 56.5,181C 52.9458,173.007 49.7791,164.841 47,156.5C 44.8974,153.029 42.3974,149.862 39.5,147C 38.2713,146.219 36.938,145.719 35.5,145.5C 29.4596,146.338 23.4596,147.338 17.5,148.5C 16.5224,148.023 15.6891,147.357 15,146.5C 11.3619,138.057 7.86187,129.557 4.5,121C 9.15139,116.695 14.1514,112.695 19.5,109C 21.6483,106.925 21.9817,104.592 20.5,102C 14.675,99.2547 9.00836,96.2547 3.5,93C 2.40857,90.9361 2.2419,88.7695 3,86.5C 4.78277,78.5328 6.94944,70.6995 9.5,63C 16.5,62.6667 23.5,62.3333 30.5,62C 32.3959,60.1917 32.8959,58.025 32,55.5C 29.2404,50.3129 26.7404,44.9795 24.5,39.5C 25.5589,36.9318 27.2256,34.7651 29.5,33C 35.61,28.5245 41.4433,23.6912 47,18.5C 52.2558,22.2114 57.4225,26.0448 62.5,30C 65.025,30.8959 67.1917,30.3959 69,28.5C 70.3337,21.8307 71.667,15.1641 73,8.5C 79.2208,7.19783 85.3875,6.19783 91.5,5.5 Z"/></g>
<g><path style="opacity:0.004" fill="#fefffe" d="M 12.5,20.5 C 13.8333,21.1667 13.8333,21.1667 12.5,20.5 Z"/></g>
<g><path style="opacity:0.004" fill="#fefffe" d="M 157.5,26.5 C 158.833,27.1667 158.833,27.1667 157.5,26.5 Z"/></g>
<g><path style="opacity:1" fill="#27176e" d="M 140.5,50.5 C 141.219,52.7638 141.552,55.0971 141.5,57.5C 136.893,60.7683 132.559,64.4349 128.5,68.5C 116.5,56.747 102.166,52.247 85.5,55C 58.2017,64.7557 47.3683,83.9224 53,112.5C 54.722,117.612 57.222,122.279 60.5,126.5C 55.5084,131.323 50.3418,135.99 45,140.5C 43.9609,139.29 42.7942,138.29 41.5,137.5C 40.9032,136.861 40.0698,136.528 39,136.5C 35.6499,136.946 32.4833,137.612 29.5,138.5C 26.4281,138.817 23.4281,138.484 20.5,137.5C 18.5,132.833 16.5,128.167 14.5,123.5C 19.4997,119.34 24.6664,115.34 30,111.5C 30.6238,106.777 30.2905,102.11 29,97.5C 23.2481,94.0402 17.4147,90.7069 11.5,87.5C 12.9836,82.5837 14.1502,77.5837 15,72.5C 21.9173,70.8817 29.084,69.8817 36.5,69.5C 38.6334,66.0654 40.6334,62.5654 42.5,59C 40.1079,52.8821 37.4413,46.8821 34.5,41C 38.1364,37.0343 42.1364,33.3676 46.5,30C 47.9078,29.6848 49.2411,30.0181 50.5,31C 54.5791,34.7874 59.0791,37.9541 64,40.5C 67.9572,39.1251 71.7905,37.4585 75.5,35.5C 77.6459,29.0037 78.9793,22.337 79.5,15.5C 85.8039,14.7403 92.1373,14.407 98.5,14.5C 100.013,20.8878 101.68,27.2211 103.5,33.5C 107.936,34.0255 112.269,35.0255 116.5,36.5C 121.537,31.4607 126.871,26.794 132.5,22.5C 137.716,24.9349 142.383,28.1016 146.5,32C 144.625,38.2391 142.625,44.4058 140.5,50.5 Z"/></g>
<g><path style="opacity:1" fill="#261770" d="M 168.5,40.5 C 170.495,83.8206 171.161,127.487 170.5,171.5C 167.5,171.5 164.5,171.5 161.5,171.5C 161.831,142.662 161.498,113.995 160.5,85.5C 160.539,84.2438 160.039,83.2438 159,82.5C 156.799,83.9959 154.299,84.9959 151.5,85.5C 152.167,86.5 152.833,87.5 153.5,88.5C 152.052,89.3539 150.719,90.3539 149.5,91.5C 148.833,89.8333 148.167,88.1667 147.5,86.5C 147.167,88.5 146.833,90.5 146.5,92.5C 144.979,86.2299 143.979,79.8966 143.5,73.5C 146.577,71.8496 149.744,71.183 153,71.5C 153.667,70.8333 153.667,70.1667 153,69.5C 152.346,70.6956 151.846,70.6956 151.5,69.5C 154.017,68.1356 155.851,66.1356 157,63.5C 157.683,59.1094 158.516,54.7761 159.5,50.5C 160.5,50.5 161.5,50.5 162.5,50.5C 161.136,47.3963 161.302,44.3963 163,41.5C 164.699,40.5939 166.533,40.2606 168.5,40.5 Z"/></g>
<g><path style="opacity:1" fill="#bfb7e7" d="M 162.5,39.5 C 165.625,38.5206 168.958,38.1872 172.5,38.5C 172.5,83.5 172.5,128.5 172.5,173.5C 168.5,173.5 164.5,173.5 160.5,173.5C 160.5,173.167 160.5,172.833 160.5,172.5C 164.167,172.5 167.833,172.5 171.5,172.5C 171.5,128.167 171.5,83.8333 171.5,39.5C 170.5,39.5 169.5,39.5 168.5,39.5C 166.5,39.5 164.5,39.5 162.5,39.5 Z"/></g>
<g><path style="opacity:1" fill="#40376c" d="M 140.5,50.5 C 145.064,52.54 145.398,54.8733 141.5,57.5C 141.552,55.0971 141.219,52.7638 140.5,50.5 Z"/></g>
<g><path style="opacity:0.004" fill="#fefffe" d="M 23.5,60.5 C 24.8333,61.1667 24.8333,61.1667 23.5,60.5 Z"/></g>
<g><path style="opacity:0.004" fill="#fefffe" d="M 2.5,61.5 C 3.83333,62.1667 3.83333,62.1667 2.5,61.5 Z"/></g>
<g><path style="opacity:1" fill="#261865" d="M 162.5,39.5 C 164.5,39.5 166.5,39.5 168.5,39.5C 168.5,39.8333 168.5,40.1667 168.5,40.5C 166.533,40.2606 164.699,40.5939 163,41.5C 161.302,44.3963 161.136,47.3963 162.5,50.5C 161.5,50.5 160.5,50.5 159.5,50.5C 158.516,54.7761 157.683,59.1094 157,63.5C 155.851,66.1356 154.017,68.1356 151.5,69.5C 151.846,70.6956 152.346,70.6956 153,69.5C 153.667,70.1667 153.667,70.8333 153,71.5C 149.744,71.183 146.577,71.8496 143.5,73.5C 143.979,79.8966 144.979,86.2299 146.5,92.5C 146.833,90.5 147.167,88.5 147.5,86.5C 148.167,88.1667 148.833,89.8333 149.5,91.5C 150.719,90.3539 152.052,89.3539 153.5,88.5C 152.833,87.5 152.167,86.5 151.5,85.5C 154.299,84.9959 156.799,83.9959 159,82.5C 160.039,83.2438 160.539,84.2438 160.5,85.5C 159.508,85.3284 158.842,85.6618 158.5,86.5C 154.499,90.267 150.333,93.9336 146,97.5C 143.88,89.5765 142.547,81.5765 142,73.5C 146.19,70.0664 150.19,66.3998 154,62.5C 156.764,54.6962 159.598,47.0295 162.5,39.5 Z"/></g>
<g><path style="opacity:0.004" fill="#fefffe" d="M 185.5,82.5 C 186.833,83.1667 186.833,83.1667 185.5,82.5 Z"/></g>
<g><path style="opacity:0.004" fill="#fefffe" d="M 1.5,95.5 C 2.83333,96.1667 2.83333,96.1667 1.5,95.5 Z"/></g>
<g><path style="opacity:1" fill="#12054c" d="M 168.5,40.5 C 168.5,40.1667 168.5,39.8333 168.5,39.5C 169.5,39.5 170.5,39.5 171.5,39.5C 171.5,83.8333 171.5,128.167 171.5,172.5C 167.833,172.5 164.167,172.5 160.5,172.5C 160.5,143.5 160.5,114.5 160.5,85.5C 161.498,113.995 161.831,142.662 161.5,171.5C 164.5,171.5 167.5,171.5 170.5,171.5C 171.161,127.487 170.495,83.8206 168.5,40.5 Z"/></g>
<g><path style="opacity:1" fill="#d2cbe7" d="M 158.5,86.5 C 158.842,85.6618 159.508,85.3284 160.5,85.5C 160.5,114.5 160.5,143.5 160.5,172.5C 160.5,172.833 160.5,173.167 160.5,173.5C 159.833,144.5 159.167,115.5 158.5,86.5 Z"/></g>
<g><path style="opacity:0.004" fill="#fefffe" d="M 185.5,129.5 C 186.833,130.167 186.833,130.167 185.5,129.5 Z"/></g>
<g><path style="opacity:0.004" fill="#fefffe" d="M 184.5,132.5 C 185.833,133.167 185.833,133.167 184.5,132.5 Z"/></g>
<g><path style="opacity:1" fill="#cac0e2" d="M 41.5,137.5 C 37.5483,138.272 33.5483,138.605 29.5,138.5C 32.4833,137.612 35.6499,136.946 39,136.5C 40.0698,136.528 40.9032,136.861 41.5,137.5 Z"/></g>
<g><path style="opacity:1" fill="#241662" d="M 61.5,150.5 C 61.5852,149.005 60.9185,148.005 59.5,147.5C 58.646,148.522 57.646,149.355 56.5,150C 57.5481,151.756 57.5481,153.59 56.5,155.5C 58.9616,160.553 60.6283,165.887 61.5,171.5C 67.8682,171.83 74.2015,171.496 80.5,170.5C 78.9412,168.869 76.9412,168.036 74.5,168C 71.2397,167.216 68.0731,167.383 65,168.5C 63.3643,165.773 63.1976,163.107 64.5,160.5C 64.8987,162.966 66.0653,164.966 68,166.5C 71.7968,165.393 75.6302,164.893 79.5,165C 80.6687,167.007 81.3354,169.173 81.5,171.5C 75.021,172.491 68.3543,172.824 61.5,172.5C 57.9003,165.201 55.4003,157.534 54,149.5C 59.3532,144.646 64.8532,139.979 70.5,135.5C 72.8155,138.812 72.8155,141.978 70.5,145C 67.3507,146.662 64.3507,148.495 61.5,150.5 Z"/></g>
<g><path style="opacity:1" fill="#26166b" d="M 106.5,170.5 C 100.25,172.459 93.5837,173.126 86.5,172.5C 83.4903,161.462 80.3236,150.462 77,139.5C 75.8756,136.558 75.5423,133.558 76,130.5C 81.3532,125.646 86.8532,120.979 92.5,116.5C 94.5119,120.233 95.3452,124.233 95,128.5C 91.0253,130.654 87.5253,133.32 84.5,136.5C 84.6622,139.222 85.8289,141.222 88,142.5C 90.9841,140.84 93.9841,139.174 97,137.5C 98.7387,141.311 99.572,145.311 99.5,149.5C 95.5291,150.045 91.8624,151.379 88.5,153.5C 89.6416,156.399 90.3083,159.399 90.5,162.5C 95.1173,161.513 99.784,160.846 104.5,160.5C 105.374,163.789 106.041,167.123 106.5,170.5 Z"/></g>
<g><path style="opacity:0.004" fill="#fefffe" d="M 36.5,150.5 C 37.8333,151.167 37.8333,151.167 36.5,150.5 Z"/></g>
<g><path style="opacity:1" fill="#251669" d="M 137.5,76.5 C 139.59,83.4284 141.257,90.5951 142.5,98C 140.5,101 138.5,104 136.5,107C 141.046,128.731 145.712,150.397 150.5,172C 147.854,172.497 145.187,172.664 142.5,172.5C 138.933,151.234 134.266,130.234 128.5,109.5C 126.5,110.833 124.5,112.167 122.5,113.5C 120.359,106.965 119.192,100.298 119,93.5C 125.363,87.9673 131.529,82.3007 137.5,76.5 Z"/></g>
<g><path style="opacity:0.004" fill="#fefffe" d="M 5.5,159.5 C 6.83333,160.167 6.83333,160.167 5.5,159.5 Z"/></g>
<g><path style="opacity:1" fill="#27176f" d="M 61.5,150.5 C 61.572,152.311 62.4053,153.644 64,154.5C 67,153.167 70,151.833 73,150.5C 75.4755,152.375 75.9755,154.709 74.5,157.5C 71.2732,158.909 67.9399,159.909 64.5,160.5C 63.1976,163.107 63.3643,165.773 65,168.5C 68.0731,167.383 71.2397,167.216 74.5,168C 76.9412,168.036 78.9412,168.869 80.5,170.5C 74.2015,171.496 67.8682,171.83 61.5,171.5C 60.6283,165.887 58.9616,160.553 56.5,155.5C 57.5481,153.59 57.5481,151.756 56.5,150C 57.646,149.355 58.646,148.522 59.5,147.5C 60.9185,148.005 61.5852,149.005 61.5,150.5 Z"/></g>
<g><path style="opacity:0.004" fill="#fefffe" d="M 46.5,161.5 C 47.8333,162.167 47.8333,162.167 46.5,161.5 Z"/></g>
<g><path style="opacity:1" fill="#27176b" d="M 107.5,101.5 C 109.936,101.317 112.103,101.984 114,103.5C 116.37,107.577 118.203,111.91 119.5,116.5C 118.562,119.273 116.729,121.273 114,122.5C 113.23,118.71 111.063,116.877 107.5,117C 106.398,119.401 106.231,121.901 107,124.5C 107.5,125.667 108.333,126.5 109.5,127C 114.861,127.104 119.027,129.271 122,133.5C 129.072,146.294 130.239,159.46 125.5,173C 119.938,174.581 115.438,173.081 112,168.5C 109.335,163.331 107.168,157.998 105.5,152.5C 107.677,152.414 109.677,151.747 111.5,150.5C 113.089,153.421 114.589,156.421 116,159.5C 119.79,161.426 121.623,160.26 121.5,156C 121.543,151.789 119.877,148.455 116.5,146C 109.177,144.674 104.344,140.508 102,133.5C 98.4497,124.292 98.783,115.292 103,106.5C 104.707,104.963 106.207,103.296 107.5,101.5 Z"/></g>
<g><path style="opacity:0.004" fill="#fefffe" d="M 182.5,168.5 C 183.833,169.167 183.833,169.167 182.5,168.5 Z"/></g>
<g><path style="opacity:1" fill="#b0aac9" d="M 81.5,171.5 C 82.0431,171.56 82.3764,171.893 82.5,172.5C 75.344,173.819 68.344,173.819 61.5,172.5C 68.3543,172.824 75.021,172.491 81.5,171.5 Z"/></g>
<g><path style="opacity:1" fill="#a6a0c2" d="M 106.5,170.5 C 107.404,171.209 107.737,172.209 107.5,173.5C 100.313,173.825 93.3134,173.491 86.5,172.5C 93.5837,173.126 100.25,172.459 106.5,170.5 Z"/></g>
</svg>
